<?xml version="1.0" encoding="UTF-8" standalone="no"?>
<!DOCTYPE svg PUBLIC "-//W3C//DTD SVG 1.1//EN"
 "http://www.w3.org/Graphics/SVG/1.1/DTD/svg11.dtd">
<!-- Generated by graphviz version 2.40.1 (20161225.0304)
 -->
<!-- Title: cpp2html Pages: 1 -->
<svg width="435pt" height="576pt"
 viewBox="0.00 0.00 434.75 576.00" xmlns="http://www.w3.org/2000/svg" xmlns:xlink="http://www.w3.org/1999/xlink">
<g id="graph0" class="graph" transform="scale(.8741 .8741) rotate(0) translate(4 655)">
<title>cpp2html</title>
<!-- &#45;1 -->
<g id="node1" class="node">
<title>&#45;1</title>
<ellipse fill="#7ccd7c" stroke="#000000" cx="215.5473" cy="-633" rx="27" ry="18"/>
<text text-anchor="middle" x="215.5473" y="-629.3" font-family="Times,serif" font-size="14.00" fill="#000000">start</text>
</g>
<!-- &#45;1&#45;&gt;&#45;1 -->
<g id="edge2" class="edge">
<title>&#45;1&#45;&gt;&#45;1</title>
<path fill="none" stroke="#000000" d="M240.9908,-639.6907C251.5751,-640.1521 260.5473,-637.9219 260.5473,-633 260.5473,-629.77 256.6833,-627.6992 251.0354,-626.7876"/>
<polygon fill="#000000" stroke="#000000" points="251.146,-623.289 240.9908,-626.3093 250.8129,-630.2811 251.146,-623.289"/>
<text text-anchor="middle" x="289.0473" y="-629.9" font-family="Times,serif" font-size="12.00" fill="#000000"> &#160;&#160;:id_delim:</text>
</g>
<!-- 0 -->
<g id="node2" class="node">
<title>0</title>
<ellipse fill="#7ccd7c" stroke="#000000" cx="160.5473" cy="-510" rx="41.6928" ry="18"/>
<text text-anchor="middle" x="160.5473" y="-506.3" font-family="Times,serif" font-size="14.00" fill="#000000">scan idfr</text>
</g>
<!-- &#45;1&#45;&gt;0 -->
<g id="edge1" class="edge">
<title>&#45;1&#45;&gt;0</title>
<path fill="none" stroke="#000000" d="M207.7838,-615.638C198.675,-595.2673 183.4602,-561.2416 172.7647,-537.3225"/>
<polygon fill="#000000" stroke="#000000" points="175.9062,-535.7739 168.629,-528.0737 169.516,-538.6313 175.9062,-535.7739"/>
<text text-anchor="middle" x="216.5473" y="-568.4" font-family="Times,serif" font-size="12.00" fill="#000000"> &#160;&#160;:ident_st:</text>
</g>
<!-- 2 -->
<g id="node4" class="node">
<title>2</title>
<ellipse fill="#7ccd7c" stroke="#000000" cx="30.5473" cy="-264" rx="30.5947" ry="18"/>
<text text-anchor="middle" x="30.5473" y="-260.3" font-family="Times,serif" font-size="14.00" fill="#000000">string</text>
</g>
<!-- &#45;1&#45;&gt;2 -->
<g id="edge4" class="edge">
<title>&#45;1&#45;&gt;2</title>
<path fill="none" stroke="#000000" d="M189.6511,-627.435C148.4424,-617.8234 72.5473,-596.7008 72.5473,-571.5 72.5473,-571.5 72.5473,-571.5 72.5473,-325.5 72.5473,-310.8696 64.3414,-297.1572 55.1839,-286.4097"/>
<polygon fill="#000000" stroke="#000000" points="57.4867,-283.7461 48.1157,-278.8028 52.3587,-288.511 57.4867,-283.7461"/>
<text text-anchor="middle" x="75.5473" y="-445.4" font-family="Times,serif" font-size="12.00" fill="#000000">&quot;</text>
</g>
<!-- 3 -->
<g id="node5" class="node">
<title>3</title>
<ellipse fill="#7ccd7c" stroke="#000000" cx="206.5473" cy="-387" rx="30.5947" ry="18"/>
<text text-anchor="middle" x="206.5473" y="-383.3" font-family="Times,serif" font-size="14.00" fill="#000000">read /</text>
</g>
<!-- &#45;1&#45;&gt;3 -->
<g id="edge5" class="edge">
<title>&#45;1&#45;&gt;3</title>
<path fill="none" stroke="#000000" d="M240.4213,-625.5305C263.9054,-616.758 295.5473,-599.7049 295.5473,-571.5 295.5473,-571.5 295.5473,-571.5 295.5473,-448.5 295.5473,-422.2536 269.0263,-406.3358 244.9391,-397.2914"/>
<polygon fill="#000000" stroke="#000000" points="245.7921,-393.8834 235.1973,-393.9354 243.512,-400.5017 245.7921,-393.8834"/>
<text text-anchor="middle" x="297.5473" y="-506.9" font-family="Times,serif" font-size="12.00" fill="#000000">/</text>
</g>
<!-- 6 -->
<g id="node7" class="node">
<title>6</title>
<ellipse fill="#7ccd7c" stroke="#000000" cx="389.5473" cy="-264" rx="44.6926" ry="18"/>
<text text-anchor="middle" x="389.5473" y="-260.3" font-family="Times,serif" font-size="14.00" fill="#000000">scan num</text>
</g>
<!-- &#45;1&#45;&gt;6 -->
<g id="edge3" class="edge">
<title>&#45;1&#45;&gt;6</title>
<path fill="none" stroke="#000000" d="M241.1278,-626.9635C280.5237,-616.9129 351.5473,-595.4695 351.5473,-571.5 351.5473,-571.5 351.5473,-571.5 351.5473,-325.5 351.5473,-312.1304 358.1268,-299.2388 365.8103,-288.7422"/>
<polygon fill="#000000" stroke="#000000" points="368.5906,-290.8695 372.1043,-280.8742 363.1244,-286.4967 368.5906,-290.8695"/>
<text text-anchor="middle" x="370.0473" y="-445.4" font-family="Times,serif" font-size="12.00" fill="#000000"> &#160;&#160;:num:</text>
</g>
<!-- 0&#45;&gt;&#45;1 -->
<g id="edge9" class="edge">
<title>0&#45;&gt;&#45;1</title>
<path fill="none" stroke="#000000" d="M141.6538,-526.3015C128.013,-540.1326 113.6004,-560.4647 123.5473,-578 135.8329,-599.6583 160.4102,-613.7017 181.0733,-622.1735"/>
<polygon fill="#000000" stroke="#000000" points="179.941,-625.4877 190.5316,-625.7875 182.4395,-618.9487 179.941,-625.4877"/>
<text text-anchor="middle" x="152.0473" y="-568.4" font-family="Times,serif" font-size="12.00" fill="#000000"> &#160;&#160;:id_delim:</text>
</g>
<!-- 0&#45;&gt;0 -->
<g id="edge6" class="edge">
<title>0&#45;&gt;0</title>
<path fill="none" stroke="#000000" d="M199.2382,-516.7397C210.9717,-516.5708 220.1436,-514.3242 220.1436,-510 220.1436,-507.0271 215.8085,-505.0362 209.2862,-504.0273"/>
<polygon fill="#000000" stroke="#000000" points="209.4756,-500.5317 199.2382,-503.2603 208.9427,-507.5114 209.4756,-500.5317"/>
<text text-anchor="middle" x="239.6436" y="-506.9" font-family="Times,serif" font-size="12.00" fill="#000000"> &#160;&#160;:ident:</text>
</g>
<!-- 0&#45;&gt;2 -->
<g id="edge8" class="edge">
<title>0&#45;&gt;2</title>
<path fill="none" stroke="#000000" d="M141.5135,-493.72C130.4008,-482.3419 118.5473,-466.0839 118.5473,-448.5 118.5473,-448.5 118.5473,-448.5 118.5473,-325.5 118.5473,-299.4528 92.3243,-283.5168 68.5077,-274.4146"/>
<polygon fill="#000000" stroke="#000000" points="69.4703,-271.0432 58.8754,-271.033 67.1515,-277.648 69.4703,-271.0432"/>
<text text-anchor="middle" x="121.5473" y="-383.9" font-family="Times,serif" font-size="12.00" fill="#000000">&quot;</text>
</g>
<!-- 0&#45;&gt;3 -->
<g id="edge7" class="edge">
<title>0&#45;&gt;3</title>
<path fill="none" stroke="#000000" d="M164.663,-491.8119C168.0312,-477.9462 173.2565,-458.4921 179.5473,-442 183.1665,-432.5117 187.8413,-422.4512 192.2811,-413.5649"/>
<polygon fill="#000000" stroke="#000000" points="195.4982,-414.9613 196.9453,-404.4658 189.269,-411.7682 195.4982,-414.9613"/>
<text text-anchor="middle" x="181.5473" y="-445.4" font-family="Times,serif" font-size="12.00" fill="#000000">/</text>
</g>
<!-- 1 -->
<g id="node3" class="node">
<title>1</title>
<ellipse fill="#7ccd7c" stroke="#000000" cx="213.5473" cy="-264" rx="44.393" ry="18"/>
<text text-anchor="middle" x="213.5473" y="-260.3" font-family="Times,serif" font-size="14.00" fill="#000000">comment</text>
</g>
<!-- 1&#45;&gt;1 -->
<g id="edge10" class="edge">
<title>1&#45;&gt;1</title>
<path fill="none" stroke="#000000" d="M254.8171,-270.7236C266.6326,-270.46 275.7434,-268.2188 275.7434,-264 275.7434,-261.0996 271.4371,-259.1339 264.9062,-258.1029"/>
<polygon fill="#000000" stroke="#000000" points="265.0695,-254.6047 254.8171,-257.2764 264.4979,-261.5813 265.0695,-254.6047"/>
<text text-anchor="middle" x="301.2434" y="-260.9" font-family="Times,serif" font-size="12.00" fill="#000000"> &#160;&#160;anything</text>
</g>
<!-- 2&#45;&gt;&#45;1 -->
<g id="edge12" class="edge">
<title>2&#45;&gt;&#45;1</title>
<path fill="none" stroke="#000000" d="M30.5473,-282.03C30.5473,-294.2878 30.5473,-310.8724 30.5473,-325.5 30.5473,-571.5 30.5473,-571.5 30.5473,-571.5 30.5473,-602.3583 124.4058,-620.4587 178.4157,-628.3198"/>
<polygon fill="#000000" stroke="#000000" points="178.2572,-631.8318 188.6467,-629.7563 179.2305,-624.8998 178.2572,-631.8318"/>
<text text-anchor="middle" x="33.5473" y="-445.4" font-family="Times,serif" font-size="12.00" fill="#000000">&quot;</text>
</g>
<!-- 2&#45;&gt;2 -->
<g id="edge13" class="edge">
<title>2&#45;&gt;2</title>
<path fill="none" stroke="#000000" d="M58.9707,-270.7236C69.9604,-271.0225 79.0946,-268.7813 79.0946,-264 79.0946,-260.8623 75.1608,-258.8185 69.3504,-257.8686"/>
<polygon fill="#000000" stroke="#000000" points="69.1539,-254.3518 58.9707,-257.2764 68.7551,-261.3404 69.1539,-254.3518"/>
<text text-anchor="middle" x="115.0946" y="-260.9" font-family="Times,serif" font-size="12.00" fill="#000000"> &#160;&#160;anything else</text>
</g>
<!-- 4 -->
<g id="node6" class="node">
<title>4</title>
<ellipse fill="#7ccd7c" stroke="#000000" cx="70.5473" cy="-141" rx="30.5947" ry="18"/>
<text text-anchor="middle" x="70.5473" y="-137.3" font-family="Times,serif" font-size="14.00" fill="#000000">read \</text>
</g>
<!-- 2&#45;&gt;4 -->
<g id="edge11" class="edge">
<title>2&#45;&gt;4</title>
<path fill="none" stroke="#000000" d="M33.0846,-245.795C35.3069,-231.9205 39.0493,-212.4628 44.5473,-196 47.7413,-186.4361 52.169,-176.3564 56.466,-167.4757"/>
<polygon fill="#000000" stroke="#000000" points="59.667,-168.9 61.0128,-158.3909 53.4072,-165.767 59.667,-168.9"/>
<text text-anchor="middle" x="46.5473" y="-199.4" font-family="Times,serif" font-size="12.00" fill="#000000">\</text>
</g>
<!-- 3&#45;&gt;0 -->
<g id="edge15" class="edge">
<title>3&#45;&gt;0</title>
<path fill="none" stroke="#000000" d="M203.0873,-405.1605C199.3111,-423.1161 192.4516,-451.1408 182.5473,-474 181.1359,-477.2575 179.4703,-480.5721 177.6974,-483.8052"/>
<polygon fill="#000000" stroke="#000000" points="174.5861,-482.1915 172.5386,-492.5866 180.6217,-485.7372 174.5861,-482.1915"/>
<text text-anchor="middle" x="219.5473" y="-445.4" font-family="Times,serif" font-size="12.00" fill="#000000"> &#160;&#160;:ident_st:</text>
</g>
<!-- 3&#45;&gt;1 -->
<g id="edge14" class="edge">
<title>3&#45;&gt;1</title>
<path fill="none" stroke="#000000" d="M207.5802,-368.8509C208.7279,-348.6843 210.5957,-315.8643 211.936,-292.3133"/>
<polygon fill="#000000" stroke="#000000" points="215.4362,-292.4063 212.5102,-282.2235 208.4476,-292.0085 215.4362,-292.4063"/>
<text text-anchor="middle" x="211.5473" y="-322.4" font-family="Times,serif" font-size="12.00" fill="#000000">/</text>
</g>
<!-- 3&#45;&gt;2 -->
<g id="edge17" class="edge">
<title>3&#45;&gt;2</title>
<path fill="none" stroke="#000000" d="M196.0553,-369.9204C183.2845,-350.4491 159.9918,-318.882 132.5473,-300 113.6214,-286.9788 89.4916,-278.1817 69.4532,-272.5449"/>
<polygon fill="#000000" stroke="#000000" points="70.2552,-269.1367 59.6919,-269.9534 68.459,-275.9023 70.2552,-269.1367"/>
<text text-anchor="middle" x="169.5473" y="-322.4" font-family="Times,serif" font-size="12.00" fill="#000000">&quot;</text>
</g>
<!-- 3&#45;&gt;6 -->
<g id="edge16" class="edge">
<title>3&#45;&gt;6</title>
<path fill="none" stroke="#000000" d="M227.3488,-373.7363C237.5035,-367.1095 249.8149,-358.8477 260.5473,-351 278.925,-337.5619 281.9408,-332.1194 300.5473,-319 317.9573,-306.7243 338.0948,-294.1527 354.8067,-284.1329"/>
<polygon fill="#000000" stroke="#000000" points="356.8918,-286.9652 363.6995,-278.8469 353.3151,-280.9479 356.8918,-286.9652"/>
<text text-anchor="middle" x="319.0473" y="-322.4" font-family="Times,serif" font-size="12.00" fill="#000000"> &#160;&#160;:num:</text>
</g>
<!-- 4&#45;&gt;2 -->
<g id="edge18" class="edge">
<title>4&#45;&gt;2</title>
<path fill="none" stroke="#000000" d="M67.9127,-159.0977C64.9548,-177.0054 59.3784,-204.9948 50.5473,-228 49.2789,-231.304 47.7533,-234.6763 46.1174,-237.9669"/>
<polygon fill="#000000" stroke="#000000" points="42.9694,-236.4315 41.3366,-246.8998 49.1411,-239.7346 42.9694,-236.4315"/>
<text text-anchor="middle" x="83.5473" y="-199.4" font-family="Times,serif" font-size="12.00" fill="#000000"> &#160;&#160;:escseq:</text>
</g>
<!-- 7 -->
<g id="node8" class="node">
<title>7</title>
<ellipse fill="#7ccd7c" stroke="#000000" cx="229.5473" cy="-18" rx="43.5923" ry="18"/>
<text text-anchor="middle" x="229.5473" y="-14.3" font-family="Times,serif" font-size="14.00" fill="#000000">error x_x</text>
</g>
<!-- 4&#45;&gt;7 -->
<g id="edge19" class="edge">
<title>4&#45;&gt;7</title>
<path fill="none" stroke="#000000" d="M89.0978,-126.6496C116.5454,-105.4166 168.217,-65.4442 200.6532,-40.352"/>
<polygon fill="#000000" stroke="#000000" points="203.089,-42.8928 208.857,-34.0057 198.8059,-37.3561 203.089,-42.8928"/>
<text text-anchor="middle" x="193.5473" y="-76.4" font-family="Times,serif" font-size="12.00" fill="#000000"> &#160;&#160;anything else</text>
</g>
<!-- 6&#45;&gt;&#45;1 -->
<g id="edge22" class="edge">
<title>6&#45;&gt;&#45;1</title>
<path fill="none" stroke="#000000" d="M405.4088,-280.8576C414.6694,-292.4796 424.5473,-308.7923 424.5473,-325.5 424.5473,-571.5 424.5473,-571.5 424.5473,-571.5 424.5473,-606.9131 312.7216,-623.4245 252.6649,-629.7385"/>
<polygon fill="#000000" stroke="#000000" points="252.0417,-626.2834 242.4425,-630.7674 252.7428,-633.2482 252.0417,-626.2834"/>
<text text-anchor="middle" x="453.0473" y="-445.4" font-family="Times,serif" font-size="12.00" fill="#000000"> &#160;&#160;:id_delim:</text>
</g>
<!-- 6&#45;&gt;3 -->
<g id="edge21" class="edge">
<title>6&#45;&gt;3</title>
<path fill="none" stroke="#000000" d="M356.7859,-276.4172C333.1135,-286.1759 300.9656,-301.0903 275.5473,-319 257.733,-331.5519 240.2757,-348.8176 227.3776,-362.81"/>
<polygon fill="#000000" stroke="#000000" points="224.441,-360.8401 220.3419,-370.6099 229.6388,-365.5287 224.441,-360.8401"/>
<text text-anchor="middle" x="277.5473" y="-322.4" font-family="Times,serif" font-size="12.00" fill="#000000">/</text>
</g>
<!-- 6&#45;&gt;6 -->
<g id="edge20" class="edge">
<title>6&#45;&gt;6</title>
<path fill="none" stroke="#000000" d="M431.2484,-270.7236C443.1874,-270.46 452.3933,-268.2188 452.3933,-264 452.3933,-261.0996 448.0421,-259.1339 441.4429,-258.1029"/>
<polygon fill="#000000" stroke="#000000" points="441.4985,-254.596 431.2484,-257.2764 440.9328,-261.5731 441.4985,-254.596"/>
<text text-anchor="middle" x="470.8933" y="-260.9" font-family="Times,serif" font-size="12.00" fill="#000000"> &#160;&#160;:num:</text>
</g>
<!-- 6&#45;&gt;7 -->
<g id="edge23" class="edge">
<title>6&#45;&gt;7</title>
<path fill="none" stroke="#000000" d="M364.6221,-248.9703C350.0698,-238.12 334.5473,-221.9806 334.5473,-202.5 334.5473,-202.5 334.5473,-202.5 334.5473,-79.5 334.5473,-51.6535 306.7103,-36.1783 279.7024,-27.7172"/>
<polygon fill="#000000" stroke="#000000" points="280.4191,-24.2822 269.8427,-24.9074 278.5006,-31.0142 280.4191,-24.2822"/>
<text text-anchor="middle" x="370.5473" y="-137.9" font-family="Times,serif" font-size="12.00" fill="#000000"> &#160;&#160;anything else</text>
</g>
</g>
</svg>
