<?xml version="1.0" encoding="UTF-8" standalone="no"?>
<!DOCTYPE svg PUBLIC "-//W3C//DTD SVG 1.1//EN"
 "http://www.w3.org/Graphics/SVG/1.1/DTD/svg11.dtd">
<!-- Generated by graphviz version 2.40.1 (20161225.0304)
 -->
<!-- Title: cpp2html Pages: 1 -->
<svg width="504pt" height="586pt"
 viewBox="0.00 0.00 504.00 585.78" xmlns="http://www.w3.org/2000/svg" xmlns:xlink="http://www.w3.org/1999/xlink">
<g id="graph0" class="graph" transform="scale(.8889 .8889) rotate(0) translate(4 655)">
<title>cpp2html</title>
<!-- &#45;1 -->
<g id="node1" class="node">
<title>&#45;1</title>
<ellipse fill="#7ccd7c" stroke="#000000" cx="203" cy="-633" rx="27" ry="18"/>
<text text-anchor="middle" x="203" y="-629.3" font-family="Times,serif" font-size="14.00" fill="#000000">start</text>
</g>
<!-- &#45;1&#45;&gt;&#45;1 -->
<g id="edge2" class="edge">
<title>&#45;1&#45;&gt;&#45;1</title>
<path fill="none" stroke="#000000" d="M228.4435,-639.6907C239.0278,-640.1521 248,-637.9219 248,-633 248,-629.77 244.136,-627.6992 238.4881,-626.7876"/>
<polygon fill="#000000" stroke="#000000" points="238.5987,-623.289 228.4435,-626.3093 238.2656,-630.2811 238.5987,-623.289"/>
<text text-anchor="middle" x="276.5" y="-629.9" font-family="Times,serif" font-size="12.00" fill="#000000"> &#160;&#160;:id_delim:</text>
</g>
<!-- 0 -->
<g id="node2" class="node">
<title>0</title>
<ellipse fill="#7ccd7c" stroke="#000000" cx="273" cy="-510" rx="41.6928" ry="18"/>
<text text-anchor="middle" x="273" y="-506.3" font-family="Times,serif" font-size="14.00" fill="#000000">scan idfr</text>
</g>
<!-- &#45;1&#45;&gt;0 -->
<g id="edge1" class="edge">
<title>&#45;1&#45;&gt;0</title>
<path fill="none" stroke="#000000" d="M222.9073,-620.6542C236.8348,-610.8818 254.572,-595.9195 264,-578 270.3679,-565.8968 272.8336,-550.9678 273.6168,-538.1842"/>
<polygon fill="#000000" stroke="#000000" points="277.119,-538.1623 273.9276,-528.0596 270.1223,-537.9475 277.119,-538.1623"/>
<text text-anchor="middle" x="295" y="-568.4" font-family="Times,serif" font-size="12.00" fill="#000000"> &#160;&#160;:ident_st:</text>
</g>
<!-- 2 -->
<g id="node4" class="node">
<title>2</title>
<ellipse fill="#7ccd7c" stroke="#000000" cx="42" cy="-264" rx="30.5947" ry="18"/>
<text text-anchor="middle" x="42" y="-260.3" font-family="Times,serif" font-size="14.00" fill="#000000">string</text>
</g>
<!-- &#45;1&#45;&gt;2 -->
<g id="edge4" class="edge">
<title>&#45;1&#45;&gt;2</title>
<path fill="none" stroke="#000000" d="M176.0432,-630.5301C120.8232,-624.7238 0,-607.8646 0,-571.5 0,-571.5 0,-571.5 0,-325.5 0,-310.8696 8.2059,-297.1572 17.3634,-286.4097"/>
<polygon fill="#000000" stroke="#000000" points="20.1886,-288.511 24.4316,-278.8028 15.0606,-283.7461 20.1886,-288.511"/>
<text text-anchor="middle" x="3" y="-445.4" font-family="Times,serif" font-size="12.00" fill="#000000">&quot;</text>
</g>
<!-- 3 -->
<g id="node5" class="node">
<title>3</title>
<ellipse fill="#7ccd7c" stroke="#000000" cx="288" cy="-387" rx="30.5947" ry="18"/>
<text text-anchor="middle" x="288" y="-383.3" font-family="Times,serif" font-size="14.00" fill="#000000">read /</text>
</g>
<!-- &#45;1&#45;&gt;3 -->
<g id="edge5" class="edge">
<title>&#45;1&#45;&gt;3</title>
<path fill="none" stroke="#000000" d="M229.8002,-630.6247C285.3679,-624.9582 408,-608.2858 408,-571.5 408,-571.5 408,-571.5 408,-448.5 408,-411.8524 363.1265,-397.0279 328.2608,-391.0407"/>
<polygon fill="#000000" stroke="#000000" points="328.6955,-387.5665 318.2811,-389.5135 327.6365,-394.486 328.6955,-387.5665"/>
<text text-anchor="middle" x="410" y="-506.9" font-family="Times,serif" font-size="12.00" fill="#000000">/</text>
</g>
<!-- 6 -->
<g id="node7" class="node">
<title>6</title>
<ellipse fill="#7ccd7c" stroke="#000000" cx="225" cy="-264" rx="44.6926" ry="18"/>
<text text-anchor="middle" x="225" y="-260.3" font-family="Times,serif" font-size="14.00" fill="#000000">scan num</text>
</g>
<!-- &#45;1&#45;&gt;6 -->
<g id="edge3" class="edge">
<title>&#45;1&#45;&gt;6</title>
<path fill="none" stroke="#000000" d="M175.9971,-630.8044C140.8871,-626.3046 84,-612.6625 84,-571.5 84,-571.5 84,-571.5 84,-473.5 84,-392.0523 87.9337,-360.0119 143,-300 148.7995,-293.6797 164.834,-286.1195 181.2029,-279.5625"/>
<polygon fill="#000000" stroke="#000000" points="182.7491,-282.7168 190.8044,-275.8348 180.2156,-276.1914 182.7491,-282.7168"/>
<text text-anchor="middle" x="103.5" y="-445.4" font-family="Times,serif" font-size="12.00" fill="#000000"> &#160;&#160;:num:</text>
</g>
<!-- 0&#45;&gt;&#45;1 -->
<g id="edge9" class="edge">
<title>0&#45;&gt;&#45;1</title>
<path fill="none" stroke="#000000" d="M245.2032,-523.7228C229.6968,-533.0288 211.7829,-546.9295 203,-565 197.0733,-577.1939 196.4642,-592.1322 197.5943,-604.8986"/>
<polygon fill="#000000" stroke="#000000" points="194.1453,-605.5226 198.8741,-615.0036 201.0898,-604.643 194.1453,-605.5226"/>
<text text-anchor="middle" x="231.5" y="-568.4" font-family="Times,serif" font-size="12.00" fill="#000000"> &#160;&#160;:id_delim:</text>
</g>
<!-- 0&#45;&gt;0 -->
<g id="edge6" class="edge">
<title>0&#45;&gt;0</title>
<path fill="none" stroke="#000000" d="M311.6909,-516.7397C323.4244,-516.5708 332.5963,-514.3242 332.5963,-510 332.5963,-507.0271 328.2612,-505.0362 321.7389,-504.0273"/>
<polygon fill="#000000" stroke="#000000" points="321.9283,-500.5317 311.6909,-503.2603 321.3954,-507.5114 321.9283,-500.5317"/>
<text text-anchor="middle" x="352.0963" y="-506.9" font-family="Times,serif" font-size="12.00" fill="#000000"> &#160;&#160;:ident:</text>
</g>
<!-- 0&#45;&gt;2 -->
<g id="edge8" class="edge">
<title>0&#45;&gt;2</title>
<path fill="none" stroke="#000000" d="M259.8937,-492.8456C249.0258,-478.8576 232.9846,-458.7467 218,-442 166.0039,-383.8895 100.4344,-319.7942 65.8621,-286.6508"/>
<polygon fill="#000000" stroke="#000000" points="68.2158,-284.0589 58.5692,-279.678 63.3784,-289.1184 68.2158,-284.0589"/>
<text text-anchor="middle" x="187" y="-383.9" font-family="Times,serif" font-size="12.00" fill="#000000">&quot;</text>
</g>
<!-- 0&#45;&gt;3 -->
<g id="edge7" class="edge">
<title>0&#45;&gt;3</title>
<path fill="none" stroke="#000000" d="M275.2133,-491.8509C277.6726,-471.6843 281.6751,-438.8643 284.5472,-415.3133"/>
<polygon fill="#000000" stroke="#000000" points="288.0412,-415.5737 285.7776,-405.2235 281.0927,-414.7263 288.0412,-415.5737"/>
<text text-anchor="middle" x="283" y="-445.4" font-family="Times,serif" font-size="12.00" fill="#000000">/</text>
</g>
<!-- 1 -->
<g id="node3" class="node">
<title>1</title>
<ellipse fill="#7ccd7c" stroke="#000000" cx="387" cy="-264" rx="44.393" ry="18"/>
<text text-anchor="middle" x="387" y="-260.3" font-family="Times,serif" font-size="14.00" fill="#000000">comment</text>
</g>
<!-- 1&#45;&gt;&#45;1 -->
<g id="edge10" class="edge">
<title>1&#45;&gt;&#45;1</title>
<path fill="none" stroke="#000000" d="M416.9726,-277.4899C434.8117,-287.7765 454,-303.8686 454,-325.5 454,-571.5 454,-571.5 454,-571.5 454,-614.9215 310.5037,-627.8398 240.5084,-631.5583"/>
<polygon fill="#000000" stroke="#000000" points="240.1541,-628.0715 230.3392,-632.0611 240.4999,-635.0629 240.1541,-628.0715"/>
<text text-anchor="middle" x="459" y="-445.4" font-family="Times,serif" font-size="12.00" fill="#000000">\n</text>
</g>
<!-- 1&#45;&gt;1 -->
<g id="edge11" class="edge">
<title>1&#45;&gt;1</title>
<path fill="none" stroke="#000000" d="M428.2698,-270.7236C440.0853,-270.46 449.1961,-268.2188 449.1961,-264 449.1961,-261.0996 444.8898,-259.1339 438.359,-258.1029"/>
<polygon fill="#000000" stroke="#000000" points="438.5222,-254.6047 428.2698,-257.2764 437.9506,-261.5813 438.5222,-254.6047"/>
<text text-anchor="middle" x="485.1961" y="-260.9" font-family="Times,serif" font-size="12.00" fill="#000000"> &#160;&#160;anything else</text>
</g>
<!-- 2&#45;&gt;&#45;1 -->
<g id="edge13" class="edge">
<title>2&#45;&gt;&#45;1</title>
<path fill="none" stroke="#000000" d="M42,-282.03C42,-294.2878 42,-310.8724 42,-325.5 42,-571.5 42,-571.5 42,-571.5 42,-598.0517 119.3807,-617.3468 166.8504,-626.6855"/>
<polygon fill="#000000" stroke="#000000" points="166.2954,-630.1426 176.7742,-628.5793 167.6076,-623.2667 166.2954,-630.1426"/>
<text text-anchor="middle" x="45" y="-445.4" font-family="Times,serif" font-size="12.00" fill="#000000">&quot;</text>
</g>
<!-- 2&#45;&gt;2 -->
<g id="edge14" class="edge">
<title>2&#45;&gt;2</title>
<path fill="none" stroke="#000000" d="M70.4235,-270.7236C81.4131,-271.0225 90.5473,-268.7813 90.5473,-264 90.5473,-260.8623 86.6135,-258.8185 80.8031,-257.8686"/>
<polygon fill="#000000" stroke="#000000" points="80.6066,-254.3518 70.4235,-257.2764 80.2078,-261.3404 80.6066,-254.3518"/>
<text text-anchor="middle" x="126.5473" y="-260.9" font-family="Times,serif" font-size="12.00" fill="#000000"> &#160;&#160;anything else</text>
</g>
<!-- 4 -->
<g id="node6" class="node">
<title>4</title>
<ellipse fill="#7ccd7c" stroke="#000000" cx="82" cy="-141" rx="30.5947" ry="18"/>
<text text-anchor="middle" x="82" y="-137.3" font-family="Times,serif" font-size="14.00" fill="#000000">read \</text>
</g>
<!-- 2&#45;&gt;4 -->
<g id="edge12" class="edge">
<title>2&#45;&gt;4</title>
<path fill="none" stroke="#000000" d="M44.5373,-245.795C46.7596,-231.9205 50.502,-212.4628 56,-196 59.194,-186.4361 63.6217,-176.3564 67.9187,-167.4757"/>
<polygon fill="#000000" stroke="#000000" points="71.1197,-168.9 72.4655,-158.3909 64.8599,-165.767 71.1197,-168.9"/>
<text text-anchor="middle" x="58" y="-199.4" font-family="Times,serif" font-size="12.00" fill="#000000">\</text>
</g>
<!-- 3&#45;&gt;0 -->
<g id="edge16" class="edge">
<title>3&#45;&gt;0</title>
<path fill="none" stroke="#000000" d="M293.3619,-404.7825C294.8501,-410.5393 296.2601,-416.9896 297,-423 299.7886,-445.652 297.5599,-452.1401 291,-474 290.105,-476.9825 288.9761,-480.0175 287.722,-482.9964"/>
<polygon fill="#000000" stroke="#000000" points="284.4894,-481.6466 283.4218,-492.1875 290.8298,-484.6131 284.4894,-481.6466"/>
<text text-anchor="middle" x="324" y="-445.4" font-family="Times,serif" font-size="12.00" fill="#000000"> &#160;&#160;:ident_st:</text>
</g>
<!-- 3&#45;&gt;1 -->
<g id="edge15" class="edge">
<title>3&#45;&gt;1</title>
<path fill="none" stroke="#000000" d="M301.1464,-370.6665C317.8963,-349.8561 347.0231,-313.6682 366.6507,-289.2824"/>
<polygon fill="#000000" stroke="#000000" points="369.6176,-291.1783 373.1612,-281.1936 364.1645,-286.7892 369.6176,-291.1783"/>
<text text-anchor="middle" x="344" y="-322.4" font-family="Times,serif" font-size="12.00" fill="#000000">/</text>
</g>
<!-- 3&#45;&gt;2 -->
<g id="edge18" class="edge">
<title>3&#45;&gt;2</title>
<path fill="none" stroke="#000000" d="M264.4125,-375.2062C220.2388,-353.1194 124.9703,-305.4851 74.6579,-280.329"/>
<polygon fill="#000000" stroke="#000000" points="76.0257,-277.0997 65.5161,-275.7581 72.8951,-283.3607 76.0257,-277.0997"/>
<text text-anchor="middle" x="181" y="-322.4" font-family="Times,serif" font-size="12.00" fill="#000000">&quot;</text>
</g>
<!-- 3&#45;&gt;6 -->
<g id="edge17" class="edge">
<title>3&#45;&gt;6</title>
<path fill="none" stroke="#000000" d="M284.7324,-368.9944C280.8445,-350.6596 273.1636,-321.8935 260,-300 257.4931,-295.8305 254.4156,-291.7679 251.1356,-287.9638"/>
<polygon fill="#000000" stroke="#000000" points="253.6166,-285.4923 244.2363,-280.5669 248.4977,-290.267 253.6166,-285.4923"/>
<text text-anchor="middle" x="292.5" y="-322.4" font-family="Times,serif" font-size="12.00" fill="#000000"> &#160;&#160;:num:</text>
</g>
<!-- 4&#45;&gt;2 -->
<g id="edge19" class="edge">
<title>4&#45;&gt;2</title>
<path fill="none" stroke="#000000" d="M79.3654,-159.0977C76.4075,-177.0054 70.8311,-204.9948 62,-228 60.7317,-231.304 59.2061,-234.6763 57.5701,-237.9669"/>
<polygon fill="#000000" stroke="#000000" points="54.4221,-236.4315 52.7893,-246.8998 60.5938,-239.7346 54.4221,-236.4315"/>
<text text-anchor="middle" x="95" y="-199.4" font-family="Times,serif" font-size="12.00" fill="#000000"> &#160;&#160;:escseq:</text>
</g>
<!-- 7 -->
<g id="node8" class="node">
<title>7</title>
<ellipse fill="#7ccd7c" stroke="#000000" cx="225" cy="-18" rx="43.5923" ry="18"/>
<text text-anchor="middle" x="225" y="-14.3" font-family="Times,serif" font-size="14.00" fill="#000000">error x_x</text>
</g>
<!-- 4&#45;&gt;7 -->
<g id="edge20" class="edge">
<title>4&#45;&gt;7</title>
<path fill="none" stroke="#000000" d="M93.8708,-124.1041C104.616,-109.5326 121.4132,-88.4583 139,-73 154.2749,-59.5737 173.1354,-47.1332 189.2979,-37.4924"/>
<polygon fill="#000000" stroke="#000000" points="191.088,-40.5002 197.9596,-32.4359 187.5588,-34.4549 191.088,-40.5002"/>
<text text-anchor="middle" x="175" y="-76.4" font-family="Times,serif" font-size="12.00" fill="#000000"> &#160;&#160;anything else</text>
</g>
<!-- 6&#45;&gt;&#45;1 -->
<g id="edge23" class="edge">
<title>6&#45;&gt;&#45;1</title>
<path fill="none" stroke="#000000" d="M194.58,-277.3759C176.4747,-287.613 157,-303.6928 157,-325.5 157,-571.5 157,-571.5 157,-571.5 157,-587.3167 166.8771,-601.6804 177.4777,-612.5416"/>
<polygon fill="#000000" stroke="#000000" points="175.1464,-615.154 184.8196,-619.4761 179.9529,-610.0651 175.1464,-615.154"/>
<text text-anchor="middle" x="185.5" y="-445.4" font-family="Times,serif" font-size="12.00" fill="#000000"> &#160;&#160;:id_delim:</text>
</g>
<!-- 6&#45;&gt;3 -->
<g id="edge22" class="edge">
<title>6&#45;&gt;3</title>
<path fill="none" stroke="#000000" d="M234.0515,-281.672C244.6157,-302.2973 262.1918,-336.6126 274.3995,-360.4467"/>
<polygon fill="#000000" stroke="#000000" points="271.4333,-362.3331 279.1073,-369.638 277.6636,-359.142 271.4333,-362.3331"/>
<text text-anchor="middle" x="261" y="-322.4" font-family="Times,serif" font-size="12.00" fill="#000000">/</text>
</g>
<!-- 6&#45;&gt;6 -->
<g id="edge21" class="edge">
<title>6&#45;&gt;6</title>
<path fill="none" stroke="#000000" d="M266.7011,-270.7236C278.6401,-270.46 287.846,-268.2188 287.846,-264 287.846,-261.0996 283.4948,-259.1339 276.8956,-258.1029"/>
<polygon fill="#000000" stroke="#000000" points="276.9512,-254.596 266.7011,-257.2764 276.3855,-261.5731 276.9512,-254.596"/>
<text text-anchor="middle" x="306.346" y="-260.9" font-family="Times,serif" font-size="12.00" fill="#000000"> &#160;&#160;:num:</text>
</g>
<!-- 6&#45;&gt;7 -->
<g id="edge24" class="edge">
<title>6&#45;&gt;7</title>
<path fill="none" stroke="#000000" d="M225,-245.97C225,-233.7122 225,-217.1276 225,-202.5 225,-202.5 225,-202.5 225,-79.5 225,-68.6436 225,-56.7091 225,-46.2657"/>
<polygon fill="#000000" stroke="#000000" points="228.5001,-46.03 225,-36.03 221.5001,-46.03 228.5001,-46.03"/>
<text text-anchor="middle" x="261" y="-137.9" font-family="Times,serif" font-size="12.00" fill="#000000"> &#160;&#160;anything else</text>
</g>
<!-- 7&#45;&gt;&#45;1 -->
<g id="edge25" class="edge">
<title>7&#45;&gt;&#45;1</title>
<path fill="none" stroke="#000000" d="M267.6905,-21.7069C355.6705,-29.9222 549,-51.1949 549,-79.5 549,-571.5 549,-571.5 549,-571.5 549,-602.6093 329.375,-623.1855 240.0819,-630.2656"/>
<polygon fill="#000000" stroke="#000000" points="239.56,-626.7956 229.8621,-631.0619 240.1038,-633.7744 239.56,-626.7956"/>
<text text-anchor="middle" x="554" y="-322.4" font-family="Times,serif" font-size="12.00" fill="#000000">\n</text>
</g>
<!-- 7&#45;&gt;7 -->
<g id="edge26" class="edge">
<title>7&#45;&gt;7</title>
<path fill="none" stroke="#000000" d="M265.5457,-24.7298C277.3797,-24.4972 286.5461,-22.2539 286.5461,-18 286.5461,-15.0754 282.2136,-13.1012 275.6602,-12.0773"/>
<polygon fill="#000000" stroke="#000000" points="275.7925,-8.5768 265.5457,-11.2702 275.2356,-15.5547 275.7925,-8.5768"/>
<text text-anchor="middle" x="322.5461" y="-14.9" font-family="Times,serif" font-size="12.00" fill="#000000"> &#160;&#160;anything else</text>
</g>
</g>
</svg>
