<?xml version="1.0" encoding="UTF-8" standalone="no"?>
<!DOCTYPE svg PUBLIC "-//W3C//DTD SVG 1.1//EN"
 "http://www.w3.org/Graphics/SVG/1.1/DTD/svg11.dtd">
<!-- Generated by graphviz version 2.40.1 (20161225.0304)
 -->
<!-- Title: comments_strings Pages: 1 -->
<svg width="363pt" height="290pt"
 viewBox="0.00 0.00 363.20 290.00" xmlns="http://www.w3.org/2000/svg" xmlns:xlink="http://www.w3.org/1999/xlink">
<g id="graph0" class="graph" transform="scale(1 1) rotate(0) translate(4 286)">
<title>comments_strings</title>
<!-- 0 -->
<g id="node1" class="node">
<title>0</title>
<ellipse fill="#7ccd7c" stroke="#000000" cx="88" cy="-264" rx="51.1914" ry="18"/>
<text text-anchor="middle" x="88" y="-260.3" font-family="Times,serif" font-size="14.00" fill="#000000">regular text</text>
</g>
<!-- 0&#45;&gt;0 -->
<g id="edge1" class="edge">
<title>0&#45;&gt;0</title>
<path fill="none" stroke="#000000" d="M135.9663,-270.6693C148.1778,-270.2309 157.3454,-268.0078 157.3454,-264 157.3454,-261.2446 153.0123,-259.3328 146.3359,-258.2646"/>
<polygon fill="#000000" stroke="#000000" points="146.2399,-254.7419 135.9663,-257.3307 145.612,-261.7136 146.2399,-254.7419"/>
<text text-anchor="middle" x="206.8454" y="-260.9" font-family="Times,serif" font-size="12.00" fill="#000000"> &#160;&#160;&#160;anything but &quot; or /</text>
</g>
<!-- 2 -->
<g id="node3" class="node">
<title>2</title>
<ellipse fill="#7ccd7c" stroke="#000000" cx="42" cy="-18" rx="30.5947" ry="18"/>
<text text-anchor="middle" x="42" y="-14.3" font-family="Times,serif" font-size="14.00" fill="#000000">string</text>
</g>
<!-- 0&#45;&gt;2 -->
<g id="edge3" class="edge">
<title>0&#45;&gt;2</title>
<path fill="none" stroke="#000000" d="M47.8628,-252.7367C24.6537,-243.5055 0,-227.7558 0,-202.5 0,-202.5 0,-202.5 0,-79.5 0,-64.8696 8.2059,-51.1572 17.3634,-40.4097"/>
<polygon fill="#000000" stroke="#000000" points="20.1886,-42.511 24.4316,-32.8028 15.0606,-37.7461 20.1886,-42.511"/>
<text text-anchor="middle" x="3" y="-137.9" font-family="Times,serif" font-size="12.00" fill="#000000">&quot;</text>
</g>
<!-- 3 -->
<g id="node4" class="node">
<title>3</title>
<ellipse fill="#7ccd7c" stroke="#000000" cx="123" cy="-141" rx="51.9908" ry="18"/>
<text text-anchor="middle" x="123" y="-137.3" font-family="Times,serif" font-size="14.00" fill="#000000">just read a /</text>
</g>
<!-- 0&#45;&gt;3 -->
<g id="edge2" class="edge">
<title>0&#45;&gt;3</title>
<path fill="none" stroke="#000000" d="M90.9028,-245.9093C93.3166,-232.0947 97.1386,-212.6618 102,-196 104.6624,-186.875 108.1619,-177.1213 111.5388,-168.4"/>
<polygon fill="#000000" stroke="#000000" points="114.8019,-169.6661 115.2483,-159.0806 108.2982,-167.0773 114.8019,-169.6661"/>
<text text-anchor="middle" x="104" y="-199.4" font-family="Times,serif" font-size="12.00" fill="#000000">/</text>
</g>
<!-- 1 -->
<g id="node2" class="node">
<title>1</title>
<ellipse fill="#7ccd7c" stroke="#000000" cx="242" cy="-18" rx="44.393" ry="18"/>
<text text-anchor="middle" x="242" y="-14.3" font-family="Times,serif" font-size="14.00" fill="#000000">comment</text>
</g>
<!-- 1&#45;&gt;0 -->
<g id="edge5" class="edge">
<title>1&#45;&gt;0</title>
<path fill="none" stroke="#000000" d="M247.8914,-36.0876C251.3311,-48.229 255,-64.6583 255,-79.5 255,-202.5 255,-202.5 255,-202.5 255,-226.5854 193.058,-244.1446 144.6223,-254.1933"/>
<polygon fill="#000000" stroke="#000000" points="143.6334,-250.822 134.5188,-256.2233 145.0123,-257.6848 143.6334,-250.822"/>
<text text-anchor="middle" x="277" y="-137.9" font-family="Times,serif" font-size="12.00" fill="#000000"> &#160;newline</text>
</g>
<!-- 1&#45;&gt;1 -->
<g id="edge4" class="edge">
<title>1&#45;&gt;1</title>
<path fill="none" stroke="#000000" d="M283.2698,-24.7236C295.0853,-24.46 304.1961,-22.2188 304.1961,-18 304.1961,-15.0996 299.8898,-13.1339 293.359,-12.1029"/>
<polygon fill="#000000" stroke="#000000" points="293.5222,-8.6047 283.2698,-11.2764 292.9506,-15.5813 293.5222,-8.6047"/>
<text text-anchor="middle" x="329.6961" y="-14.9" font-family="Times,serif" font-size="12.00" fill="#000000"> &#160;&#160;anything</text>
</g>
<!-- 2&#45;&gt;0 -->
<g id="edge7" class="edge">
<title>2&#45;&gt;0</title>
<path fill="none" stroke="#000000" d="M42,-36.03C42,-48.2878 42,-64.8724 42,-79.5 42,-202.5 42,-202.5 42,-202.5 42,-216.7375 50.0033,-229.7977 59.3333,-240.1857"/>
<polygon fill="#000000" stroke="#000000" points="57.1064,-242.9127 66.616,-247.5837 62.0949,-238.0019 57.1064,-242.9127"/>
<text text-anchor="middle" x="45" y="-137.9" font-family="Times,serif" font-size="12.00" fill="#000000">&quot;</text>
</g>
<!-- 2&#45;&gt;2 -->
<g id="edge6" class="edge">
<title>2&#45;&gt;2</title>
<path fill="none" stroke="#000000" d="M70.4235,-24.7236C81.4131,-25.0225 90.5473,-22.7813 90.5473,-18 90.5473,-14.8623 86.6135,-12.8185 80.8031,-11.8686"/>
<polygon fill="#000000" stroke="#000000" points="80.6066,-8.3518 70.4235,-11.2764 80.2078,-15.3404 80.6066,-8.3518"/>
<text text-anchor="middle" x="128.0473" y="-14.9" font-family="Times,serif" font-size="12.00" fill="#000000"> &#160;&#160;&#160;anything else</text>
</g>
<!-- 3&#45;&gt;0 -->
<g id="edge9" class="edge">
<title>3&#45;&gt;0</title>
<path fill="none" stroke="#000000" d="M122.0248,-159.1425C120.6141,-177.0844 117.1993,-205.099 109,-228 107.8781,-231.1336 106.4813,-234.3034 104.9447,-237.3953"/>
<polygon fill="#000000" stroke="#000000" points="101.7886,-235.8714 100.0502,-246.3227 107.9267,-239.2366 101.7886,-235.8714"/>
<text text-anchor="middle" x="167.5" y="-199.4" font-family="Times,serif" font-size="12.00" fill="#000000"> &#160;&#160;&#160;anything but &quot; or /</text>
</g>
<!-- 3&#45;&gt;1 -->
<g id="edge8" class="edge">
<title>3&#45;&gt;1</title>
<path fill="none" stroke="#000000" d="M139.5464,-123.8974C160.0615,-102.6927 195.1641,-66.4102 218.4738,-42.317"/>
<polygon fill="#000000" stroke="#000000" points="221.1563,-44.578 225.5941,-34.9574 216.1254,-39.7107 221.1563,-44.578"/>
<text text-anchor="middle" x="190" y="-76.4" font-family="Times,serif" font-size="12.00" fill="#000000">/</text>
</g>
<!-- 3&#45;&gt;2 -->
<g id="edge10" class="edge">
<title>3&#45;&gt;2</title>
<path fill="none" stroke="#000000" d="M111.3947,-123.3771C97.5857,-102.408 74.4255,-67.2388 58.6942,-43.3505"/>
<polygon fill="#000000" stroke="#000000" points="61.4868,-41.2273 53.0638,-34.8005 55.6406,-45.0773 61.4868,-41.2273"/>
<text text-anchor="middle" x="90" y="-76.4" font-family="Times,serif" font-size="12.00" fill="#000000">&quot;</text>
</g>
</g>
</svg>
